<svg width="400" height="200" viewBox="0 0 400 200" fill="none" xmlns="http://www.w3.org/2000/svg">
<rect width="400" height="200" fill="#8C79B0"/>
<g filter="url(#filter0_d)">
<path d="M2.55572 16.3527H0V0H2.53822L2.55572 16.3527Z" transform="translate(114.261 80.2614)" fill="white"/>
<path d="M11.1857 12.2538H8.87501V4.92012C8.93873 4.10361 8.71926 3.28924 8.24483 2.58185C7.9647 2.29508 7.6071 2.07291 7.20393 1.93514C6.80075 1.79738 6.36453 1.74831 5.93418 1.7923C5.54858 1.7964 5.16555 1.84752 4.79635 1.94414C4.35016 2.06282 3.9424 2.27087 3.60602 2.55148C3.20255 2.89587 2.88653 3.30961 2.67826 3.76617C2.39995 4.39539 2.26903 5.06642 2.29315 5.74004V12.2386H0V0.334678H2.18812V2.02006C2.30482 1.86822 2.47987 1.6759 2.71327 1.44308C2.96551 1.18987 3.25372 0.965388 3.57101 0.775002C3.93909 0.549237 4.33916 0.365524 4.76134 0.228393C5.26594 0.0692919 5.79998 -0.00791096 6.33679 0.00063997C6.89082 0.001838 7.44288 0.0578732 7.98226 0.167659C8.5459 0.278765 9.07656 0.490805 9.5402 0.790186C10.0385 1.12183 10.4353 1.55459 10.6955 2.05042C11.0222 2.70621 11.1777 3.41656 11.1507 4.13057L11.1857 12.2538Z" transform="translate(121.858 84.3603)" fill="white"/>
<path d="M4.20119 6.3391V16.588H1.89054V6.3391H0V4.6689H1.89054V2.61912C1.85379 2.24764 1.91865 1.87388 2.07987 1.52825C2.24108 1.18261 2.49409 0.874876 2.8183 0.630067C3.5956 0.174404 4.5253 -0.0445553 5.46155 0.00754014H5.96919H6.51185V1.84475H6.03921H5.56658C5.37103 1.82647 5.17326 1.84704 4.98825 1.90492C4.80324 1.9628 4.63585 2.05645 4.49878 2.17879C4.26736 2.49499 4.16275 2.8686 4.20119 3.24164V4.76H6.54686V6.3391H4.20119Z" transform="translate(136.089 80.0261)" fill="white"/>
<path d="M0 6.35843C0.00117086 5.58214 0.130867 4.81002 0.385111 4.06571C0.62687 3.33482 1.0247 2.64981 1.55794 2.04629C2.13087 1.40902 2.86382 0.893486 3.70102 0.538895C4.53822 0.184304 5.45762 0 6.38931 0C7.32099 0 8.2404 0.184304 9.0776 0.538895C9.9148 0.893486 10.6477 1.40902 11.2207 2.04629C11.7539 2.64981 12.1517 3.33482 12.3935 4.06571C12.8953 5.55287 12.8953 7.13362 12.3935 8.62078C12.1517 9.35167 11.7539 10.0367 11.2207 10.6402C10.6477 11.2775 9.9148 11.793 9.0776 12.1476C8.2404 12.5022 7.32099 12.6865 6.38931 12.6865C5.45762 12.6865 4.53822 12.5022 3.70102 12.1476C2.86382 11.793 2.13087 11.2775 1.55794 10.6402C1.0247 10.0367 0.62687 9.35167 0.385111 8.62078C0.13393 7.88628 0.00426373 7.12456 0 6.35843V6.35843ZM2.39818 6.35843C2.40539 6.82204 2.45809 7.28428 2.55572 7.74014C2.65794 8.27089 2.85895 8.78369 3.15089 9.25849C3.44501 9.73629 3.86481 10.1472 4.37624 10.458C4.98601 10.7782 5.68523 10.9475 6.39806 10.9475C7.11089 10.9475 7.81012 10.7782 8.41989 10.458C8.93132 10.1472 9.35111 9.73629 9.64523 9.25849C9.93717 8.78369 10.1382 8.27089 10.2404 7.74014C10.3381 7.28429 10.3908 6.82205 10.3979 6.35843C10.3906 5.89482 10.3379 5.43259 10.2404 4.97672C10.1379 4.44604 9.93688 3.93327 9.64523 3.45836C9.35057 2.9809 8.93088 2.57006 8.41989 2.25886C7.81012 1.93862 7.11089 1.76932 6.39806 1.76932C5.68523 1.76932 4.98601 1.93862 4.37624 2.25886C3.86524 2.57006 3.44555 2.9809 3.15089 3.45836C2.85924 3.93327 2.65824 4.44604 2.55572 4.97672C2.45239 5.43216 2.39383 5.89439 2.38068 6.35843H2.39818Z" transform="translate(144.859 84.2885)" fill="white"/>
<path d="M2.31065 12.2239H0V0.304734H2.18812V2.2786C2.60902 1.64473 3.16786 1.08781 3.83359 0.638773C4.47298 0.207853 5.2648 -0.0175091 6.07422 0.00106258H6.42433H6.68689V2.15713H5.81165C5.31292 2.1474 4.81756 2.23023 4.35874 2.40007C3.93836 2.56265 3.56248 2.8007 3.25592 3.09851C2.95096 3.39648 2.71342 3.74159 2.55572 4.11581C2.39088 4.50473 2.30788 4.91615 2.31065 5.3305V12.2239Z" transform="translate(161.559 84.3903)" fill="white"/>
<path d="M0 0.336013H2.17061V2.02139L2.67826 1.44442C2.91816 1.1919 3.1947 0.967341 3.50099 0.776337C3.86688 0.54749 4.26744 0.363552 4.69133 0.229728C5.23022 0.063591 5.80017 -0.0136544 6.3718 0.00197504C6.89603 -0.0104834 7.41835 0.061594 7.91224 0.214544C8.29037 0.339651 8.6445 0.513705 8.96254 0.730787C9.21946 0.90915 9.43862 1.12494 9.61022 1.3685L10.0128 1.94547C10.2929 1.67217 10.573 1.41405 10.8531 1.17111C11.121 0.933521 11.4207 0.724533 11.7458 0.548584C12.0851 0.374531 12.4502 0.2417 12.8311 0.15381C13.2823 0.0501222 13.7473 -0.000938573 14.214 0.00197504C14.6462 0.012861 15.0752 0.068939 15.4919 0.168994C15.9942 0.283483 16.4646 0.484908 16.8748 0.761154C17.3496 1.08709 17.7327 1.50247 17.9951 1.97584C18.325 2.6147 18.4808 3.31092 18.4502 4.01044V12.2551H16.1746V4.55705C16.2077 3.86339 16.0199 3.17523 15.6319 2.568C15.4045 2.29769 15.098 2.08486 14.7442 1.95142C14.3903 1.81798 14.0019 1.76876 13.6189 1.80882C13.156 1.80192 12.6986 1.89589 12.2885 2.08213C11.8987 2.25909 11.5536 2.50169 11.2732 2.79575C10.9913 3.09994 10.7722 3.44411 10.6255 3.81305C10.4737 4.18874 10.3968 4.5841 10.3979 4.98219V12.2551H8.1223V4.01044C8.1219 3.7555 8.09258 3.50122 8.03477 3.25126C7.97941 2.99665 7.86638 2.75409 7.70218 2.53763C7.52917 2.32348 7.30153 2.14682 7.03699 2.02139C6.71227 1.87837 6.35053 1.81039 5.98669 1.82401C5.60696 1.82952 5.22994 1.88061 4.86638 1.97584C4.42018 2.09452 4.01242 2.30258 3.67604 2.58318C3.27257 2.92757 2.95656 3.34132 2.74828 3.79787C2.46998 4.4271 2.33905 5.09812 2.36317 5.77174V12.2703H0V0.336013Z" transform="translate(171.274 84.3589)" fill="white"/>
<path d="M0.683075 3.96342C0.675977 3.33582 0.825256 2.71431 1.1207 2.14138C1.38518 1.65626 1.78168 1.23418 2.27603 0.911514C2.79906 0.578388 3.39457 0.340779 4.02653 0.213068C4.77869 0.0646132 5.54833 -0.00673095 6.31967 0.000499101H7.07239C7.43193 0.0297261 7.78871 0.0804579 8.14019 0.152334C8.53605 0.233448 8.92272 0.345244 9.29552 0.486374C9.68162 0.630971 10.0367 0.831183 10.3458 1.07853C10.7002 1.3584 10.9806 1.70138 11.1679 2.084C11.3552 2.46662 11.445 2.87983 11.4311 3.29534V10.1431C11.4311 10.6138 11.6762 10.8416 12.2013 10.8416H12.5514H12.9541V12.3599L12.3764 12.5118C12.1546 12.5672 11.9244 12.5928 11.6937 12.5877C11.277 12.5957 10.8621 12.5392 10.4684 12.4207C10.1936 12.3379 9.94689 12.197 9.75064 12.0107C9.58715 11.8427 9.4677 11.6458 9.40055 11.4337C9.32783 11.2158 9.2809 10.9919 9.26051 10.7657C9.03294 10.9782 8.77038 11.206 8.4903 11.4186C8.17603 11.6612 7.82927 11.8702 7.4575 12.0411C7.01881 12.2433 6.55481 12.4013 6.07461 12.5118C5.50257 12.6375 4.91421 12.6988 4.32411 12.694C3.72857 12.7043 3.13571 12.622 2.57361 12.451C2.0702 12.2979 1.60632 12.0606 1.20823 11.7526C0.825156 11.4528 0.520714 11.0852 0.315472 10.6746C0.100026 10.2329 -0.00727189 9.75721 0.000382519 9.27767C0.010845 8.96146 0.0518327 8.64656 0.122917 8.33629C0.212729 7.92396 0.397285 7.53152 0.665579 7.18234C0.989473 6.76875 1.41365 6.42155 1.90843 6.16504C2.60618 5.81729 3.38256 5.6049 4.18407 5.54251L8.00015 5.13255L8.42028 5.05663C8.56972 5.0176 8.70725 4.95017 8.82288 4.85925C8.95924 4.74576 9.06142 4.605 9.12046 4.44929C9.19913 4.2178 9.2346 3.97688 9.2255 3.73566C9.2255 2.45012 8.14603 1.80735 5.98709 1.80735C5.44376 1.78835 4.90168 1.86585 4.39413 2.0351C4.04249 2.16246 3.73059 2.36017 3.48388 2.61208C3.274 2.83552 3.1191 3.09389 3.02875 3.37126C2.94942 3.61519 2.89091 3.86386 2.8537 4.11525L0.683075 3.96342ZM9.13797 6.18022L8.80537 6.36242C8.6034 6.43889 8.39196 6.49493 8.17521 6.52944L7.0899 6.71164L5.3394 6.92421L4.41164 7.07605C4.07679 7.14032 3.75309 7.24241 3.44886 7.37972C3.15199 7.51492 2.89456 7.70706 2.69615 7.94152C2.4839 8.21414 2.37947 8.53917 2.39857 8.86771C2.36266 9.4216 2.57603 9.96596 2.99373 10.3861C3.25098 10.5866 3.55335 10.7387 3.88174 10.8327C4.21014 10.9268 4.55746 10.9608 4.90178 10.9327C5.43667 10.9355 5.96861 10.8638 6.47723 10.7201C6.95988 10.586 7.41485 10.3861 7.8251 10.128C8.20807 9.89057 8.53492 9.59161 8.78788 9.2473C9.03019 8.91597 9.15778 8.53127 9.15548 8.1389L9.13797 6.18022Z" transform="translate(193.505 84.3604)" fill="white"/>
<path d="M4.2362 4.9954V12.7694C4.22443 12.9544 4.27297 13.1386 4.37624 13.3008C4.46416 13.4257 4.59182 13.5259 4.74384 13.5893C4.88619 13.65 5.04076 13.686 5.19897 13.6956H6.44182V15.214L5.35651 15.3202H4.70882C4.23176 15.3328 3.75637 15.2658 3.30844 15.1229C2.97873 15.0139 2.68862 14.8304 2.46819 14.5914C2.2614 14.3534 2.11793 14.0785 2.04808 13.7867C1.96502 13.4524 1.92394 13.1113 1.92554 12.7694V4.9954H0V3.32521H1.85552V0H4.2362V3.32521H6.44182V4.9954H4.2362Z" transform="translate(208.42 81.3698)" fill="white"/>
<path d="M0 2.27754V0H2.31065V2.27754H0ZM2.31065 16.3527H0V4.43361H2.31065V16.3527Z" transform="translate(218.38 80.2614)" fill="white"/>
<path d="M0 6.36385C0.00141232 5.58758 0.131103 4.81549 0.385111 4.07113C0.62687 3.34025 1.0247 2.65524 1.55794 2.05172C2.08754 1.45104 2.76282 0.958624 3.53601 0.609275C4.80854 0.0296549 6.27549 -0.143452 7.68028 0.120233C9.08508 0.383918 10.3383 1.06761 11.2207 2.05172C11.7539 2.65524 12.1518 3.34025 12.3935 4.07113C12.8944 5.55842 12.8944 7.13892 12.3935 8.62621C12.1518 9.35709 11.7539 10.0421 11.2207 10.6456C10.6478 11.2829 9.91481 11.7984 9.07761 12.153C8.24041 12.5076 7.32099 12.6919 6.38931 12.6919C5.45763 12.6919 4.53823 12.5076 3.70103 12.153C2.86382 11.7984 2.13087 11.2829 1.55794 10.6456C1.0247 10.0421 0.62687 9.35709 0.385111 8.62621C0.134391 7.89162 0.00473479 7.12995 0 6.36385V6.36385ZM2.39818 6.36385C2.40573 6.82745 2.45843 7.28966 2.55572 7.74556C2.65824 8.27625 2.85925 8.78901 3.1509 9.26392C3.44609 9.74106 3.86568 10.1518 4.37624 10.4634C4.98535 10.7853 5.68482 10.9555 6.39806 10.9555C7.1113 10.9555 7.81079 10.7853 8.41989 10.4634C8.93222 10.1535 9.35222 9.74237 9.64524 9.26392C9.93746 8.78923 10.1385 8.27638 10.2404 7.74556C10.3385 7.28976 10.3912 6.82749 10.3979 6.36385C10.3911 5.90023 10.3384 5.43796 10.2404 4.98215C10.1382 4.4514 9.93717 3.93859 9.64524 3.46379C9.35167 2.98567 8.93177 2.57462 8.41989 2.26429C7.81013 1.94404 7.11089 1.77474 6.39806 1.77474C5.68523 1.77474 4.98601 1.94404 4.37624 2.26429C3.86568 2.5759 3.44609 2.98665 3.1509 3.46379C2.85953 3.9388 2.65854 4.45153 2.55572 4.98215C2.45272 5.43763 2.39416 5.89984 2.38068 6.36385H2.39818Z" transform="translate(224.577 84.2831)" fill="white"/>
<path d="M11.1857 12.2537H8.87501V4.92007C8.93982 4.10349 8.72028 3.28885 8.24485 2.5818C7.96472 2.29503 7.6071 2.07286 7.20393 1.9351C6.80075 1.79733 6.36455 1.74826 5.93419 1.79225C5.54861 1.79656 5.16561 1.84767 4.79637 1.94409C4.35616 2.06441 3.9545 2.2724 3.62353 2.55143C3.22005 2.89582 2.90404 3.30957 2.69577 3.76612C2.41746 4.39535 2.28654 5.06637 2.31065 5.73999V12.2386H0V0.33463H2.17062V2.02001C2.29316 1.86817 2.4682 1.67079 2.69577 1.44303C2.94801 1.18982 3.23623 0.96534 3.55352 0.774954C3.9216 0.549189 4.32167 0.365476 4.74386 0.228345C5.24855 0.0695782 5.78251 -0.00761427 6.31929 0.000591828C6.87332 0.00178985 7.42538 0.057825 7.96476 0.167611C8.5284 0.278717 9.05905 0.490757 9.5227 0.790138C10.021 1.12178 10.4178 1.55455 10.678 2.05038C10.9988 2.70734 11.1482 3.41765 11.1157 4.13053L11.1857 12.2537Z" transform="translate(241.137 84.3604)" fill="white"/>
<path d="M11.9912 5.21448C11.9672 4.68205 11.7993 4.16195 11.5011 3.69612C11.2295 3.28732 10.852 2.93901 10.3983 2.67882C9.94513 2.41902 9.44075 2.23373 8.91033 2.13221C8.38162 2.03018 7.84151 1.97926 7.29987 1.98038C6.84809 1.98558 6.39744 2.02111 5.95199 2.08666C5.46177 2.15346 4.98821 2.29209 4.55158 2.49662C4.10963 2.70465 3.73151 3.0014 3.44879 3.36208C3.12419 3.81633 2.97119 4.34714 3.01117 4.88044C2.99727 5.18288 3.06312 5.48407 3.20372 5.76109C3.32585 5.9858 3.49842 6.18712 3.71135 6.35325C3.9238 6.51445 4.16657 6.64284 4.42906 6.73284C4.69113 6.82469 4.96016 6.90079 5.23428 6.96059L10.6258 8.03863C11.2315 8.14781 11.8194 8.32119 12.3763 8.55487C13.4117 8.9933 14.2137 9.75958 14.6169 10.6958C14.848 11.2399 14.9608 11.8165 14.9495 12.3963C14.9867 13.2425 14.7438 14.0803 14.2493 14.8105C13.8137 15.4304 13.2135 15.951 12.4988 16.3289C11.7568 16.7081 10.9459 16.975 10.1007 17.1184C8.53756 17.3914 6.93047 17.4171 5.35682 17.1943C4.81227 17.1154 4.27848 16.9882 3.76387 16.8147C3.37382 16.6815 3.00358 16.5081 2.66105 16.2985C2.39945 16.1385 2.14818 15.9661 1.90834 15.7823C1.19557 15.2564 0.65771 14.575 0.350405 13.8084C0.111234 13.1035 -0.00674411 12.3719 0.000297549 11.6371H2.39848C2.3688 12.2797 2.53165 12.9179 2.87112 13.4895C3.16969 13.9563 3.58915 14.3565 4.09646 14.6587C4.62696 14.9642 5.22187 15.1758 5.84696 15.2812C6.42125 15.3961 7.00812 15.4572 7.59746 15.4634C8.11308 15.4577 8.62771 15.4221 9.1379 15.3571C9.69407 15.2945 10.2366 15.1615 10.7484 14.9623C11.2366 14.7713 11.6678 14.4856 12.0087 14.1272C12.3686 13.7192 12.5486 13.213 12.5163 12.7C12.5277 12.3335 12.4625 11.9683 12.3238 11.622C12.1908 11.3228 11.967 11.0605 11.6761 10.8628C11.3007 10.617 10.8806 10.4271 10.4333 10.301C9.91977 10.139 9.27794 9.97707 8.50772 9.81511L4.63911 9.04075C4.2466 8.96207 3.86062 8.86062 3.48378 8.73707C3.00844 8.58226 2.56509 8.36179 2.17091 8.08418C1.73026 7.77275 1.36195 7.39144 1.08561 6.96059C0.760119 6.41775 0.603256 5.81072 0.630477 5.1993C0.630574 4.56323 0.754864 3.93178 0.99808 3.33172C1.24337 2.72861 1.63769 2.17931 2.15341 1.72226C2.72974 1.22231 3.42186 0.834162 4.18399 0.583487C5.06285 0.244061 6.00645 0.0484509 6.96728 0.00651158C8.29901 -0.0387607 9.62736 0.152411 10.8709 0.568304C11.7153 0.866187 12.4655 1.33469 13.059 1.93483C13.57 2.43853 13.9306 3.04332 14.1093 3.69612C14.2432 4.19599 14.3368 4.70334 14.3894 5.21448H11.9912Z" transform="translate(265.206 79.8145)" fill="white"/>
<path d="M9.5058 4.28465C9.42155 3.57883 9.07078 2.91693 8.50803 2.40189C7.89708 1.93432 7.09838 1.6943 6.28489 1.73381C5.67034 1.72101 5.06393 1.85776 4.5344 2.12858C4.05102 2.38986 3.64844 2.74948 3.36157 3.17625C3.049 3.6458 2.83559 4.15999 2.73139 4.69461C2.6132 5.21981 2.55456 5.75378 2.55633 6.28889C2.55926 6.79733 2.60608 7.30487 2.69637 7.80725C2.77703 8.33633 2.96051 8.84972 3.23902 9.32561C3.50481 9.76809 3.89647 10.1444 4.37686 10.4188C4.9579 10.7189 5.62667 10.8665 6.30239 10.844C7.07985 10.8464 7.82754 10.5848 8.38548 10.1152C9.03552 9.54826 9.45362 8.8123 9.57583 8.01982H11.7989C11.7377 8.53843 11.6024 9.04845 11.3963 9.53818C11.1802 10.0892 10.8543 10.6031 10.4336 11.0565C9.95257 11.5383 9.35483 11.922 8.68306 12.1801C7.88724 12.4941 7.01869 12.6448 6.14485 12.6204C5.25497 12.6354 4.3717 12.4852 3.55412 12.1801C2.81342 11.8946 2.15556 11.4692 1.62857 10.9351C1.08621 10.3773 0.675783 9.73241 0.42072 9.03712C0.133298 8.26216 -0.00853626 7.45215 0.000618261 6.63811C-0.0101367 5.76136 0.119472 4.88756 0.385729 4.04172C0.622847 3.27852 1.02695 2.562 1.57605 1.9312C2.11924 1.32564 2.82144 0.841496 3.62413 0.519123C4.55386 0.158771 5.56441 -0.0175718 6.58247 0.00288214C7.37001 -0.0214284 8.15375 0.108307 8.87562 0.382472C9.47244 0.621593 10.0036 0.968413 10.4336 1.39977C10.8372 1.81064 11.1462 2.28483 11.3438 2.79666C11.5403 3.28794 11.6696 3.79756 11.7289 4.31502L9.5058 4.28465Z" transform="translate(283.393 84.4188)" fill="white"/>
<path d="M11.1857 16.3527H8.87503V8.56354C8.87816 8.19141 8.83708 7.81998 8.75248 7.45514C8.68702 7.15281 8.5434 6.86728 8.33238 6.62004C8.11137 6.38161 7.82142 6.19824 7.49212 6.08862C7.06214 5.94664 6.60414 5.87957 6.14426 5.89123C5.67416 5.8932 5.20739 5.95983 4.76135 6.08862C4.29296 6.22472 3.86748 6.45344 3.51851 6.7567C3.12588 7.10573 2.82701 7.52569 2.64327 7.98657C2.40479 8.59213 2.29217 9.22961 2.31067 9.86933V16.3679H0V0H2.31067V6.07343C2.46238 5.89123 2.66076 5.68372 2.90583 5.45091C3.15731 5.21155 3.43917 4.99762 3.74606 4.8132C4.09246 4.60805 4.46933 4.4446 4.86638 4.32732C5.34009 4.18978 5.83732 4.12304 6.33681 4.12994C6.89084 4.13113 7.44288 4.18717 7.98226 4.29695C8.5459 4.40806 9.07655 4.6201 9.5402 4.91948C10.039 5.25068 10.4359 5.68356 10.6955 6.17972C11.0222 6.83551 11.1777 7.54586 11.1507 8.25987L11.1857 16.3527Z" transform="translate(298.78 80.2614)" fill="white"/>
<path d="M0 6.35843C0.00141232 5.58215 0.131103 4.81006 0.385111 4.06571C0.62687 3.33482 1.0247 2.64981 1.55794 2.04629C2.13087 1.40902 2.86382 0.893486 3.70103 0.538895C4.53823 0.184304 5.45762 0 6.3893 0C7.32098 0 8.2404 0.184304 9.0776 0.538895C9.9148 0.893486 10.6478 1.40902 11.2207 2.04629C11.7539 2.64981 12.1518 3.33482 12.3935 4.06571C12.8944 5.55299 12.8944 7.1335 12.3935 8.62078C12.1518 9.35167 11.7539 10.0367 11.2207 10.6402C10.6478 11.2775 9.9148 11.793 9.0776 12.1476C8.2404 12.5022 7.32098 12.6865 6.3893 12.6865C5.45762 12.6865 4.53823 12.5022 3.70103 12.1476C2.86382 11.793 2.13087 11.2775 1.55794 10.6402C1.0247 10.0367 0.62687 9.35167 0.385111 8.62078C0.134391 7.88619 0.00473479 7.12453 0 6.35843V6.35843ZM2.39817 6.35843C2.40496 6.82206 2.45768 7.28433 2.55574 7.74014C2.65765 8.27095 2.85867 8.7838 3.1509 9.25849C3.44501 9.73629 3.86481 10.1472 4.37624 10.458C4.98535 10.7799 5.68482 10.9501 6.39806 10.9501C7.1113 10.9501 7.81078 10.7799 8.41988 10.458C8.93131 10.1472 9.35111 9.73629 9.64522 9.25849C9.93774 8.78391 10.1388 8.27102 10.2404 7.74014C10.3385 7.28433 10.3912 6.82206 10.3979 6.35843C10.391 5.8948 10.3383 5.43255 10.2404 4.97672C10.1385 4.44591 9.93745 3.93306 9.64522 3.45836C9.35057 2.9809 8.93088 2.57006 8.41988 2.25886C7.81011 1.93862 7.11089 1.76932 6.39806 1.76932C5.68523 1.76932 4.98601 1.93862 4.37624 2.25886C3.86481 2.56963 3.44501 2.98057 3.1509 3.45836C2.85896 3.93316 2.65796 4.44597 2.55574 4.97672C2.45189 5.4321 2.39332 5.89436 2.38068 6.35843H2.39817Z" transform="translate(313.747 84.2885)" fill="white"/>
<path d="M0 6.35843C0.00141232 5.58215 0.131103 4.81006 0.385111 4.06571C0.62687 3.33482 1.0247 2.64981 1.55794 2.04629C2.13087 1.40902 2.86382 0.893486 3.70103 0.538895C4.53823 0.184304 5.45765 0 6.38933 0C7.32101 0 8.24042 0.184304 9.07763 0.538895C9.91483 0.893486 10.6478 1.40902 11.2207 2.04629C11.7539 2.64981 12.1518 3.33482 12.3935 4.06571C12.8944 5.55299 12.8944 7.1335 12.3935 8.62078C12.1518 9.35167 11.7539 10.0367 11.2207 10.6402C10.6478 11.2775 9.91483 11.793 9.07763 12.1476C8.24042 12.5022 7.32101 12.6865 6.38933 12.6865C5.45765 12.6865 4.53823 12.5022 3.70103 12.1476C2.86382 11.793 2.13087 11.2775 1.55794 10.6402C1.0247 10.0367 0.62687 9.35167 0.385111 8.62078C0.134391 7.88619 0.00473479 7.12453 0 6.35843V6.35843ZM2.3982 6.35843C2.4049 6.82207 2.4576 7.28434 2.55574 7.74014C2.65735 8.27102 2.85839 8.78391 3.1509 9.25849C3.44501 9.73629 3.86481 10.1472 4.37624 10.458C4.98535 10.7799 5.68485 10.9501 6.39809 10.9501C7.11132 10.9501 7.8108 10.7799 8.41991 10.458C8.93134 10.1472 9.35113 9.73629 9.64525 9.25849C9.93747 8.7838 10.1385 8.27095 10.2404 7.74014C10.3384 7.28432 10.3911 6.82206 10.3979 6.35843C10.3909 5.89481 10.3382 5.43256 10.2404 4.97672C10.1385 4.44591 9.93747 3.93306 9.64525 3.45836C9.35059 2.9809 8.9309 2.57006 8.41991 2.25886C7.81014 1.93862 7.11092 1.76932 6.39809 1.76932C5.68526 1.76932 4.98601 1.93862 4.37624 2.25886C3.86481 2.56963 3.44501 2.98057 3.1509 3.45836C2.85867 3.93306 2.65765 4.44591 2.55574 4.97672C2.45777 5.43254 2.40507 5.8948 2.3982 6.35843V6.35843Z" transform="translate(329.572 84.2885)" fill="white"/>
<path d="M2.31064 16.3527H0V0H2.31064V16.3527Z" transform="translate(346.219 80.2614)" fill="white"/>
<path fill-rule="evenodd" clip-rule="evenodd" d="M5.65701 6.60486C5.86707 5.76976 9.99824 5.72421 9.73566 6.77188C8.73151 10.078 7.35969 13.2918 5.6395 16.3679C4.23911 19.1921 3.88901 21.5759 4.64172 22.9728C5.03969 23.858 5.70475 24.6342 6.56726 25.2199C8.27076 26.1592 10.2785 26.5959 12.2914 26.465C13.9692 26.5381 15.6464 26.3112 17.2188 25.7983C18.7912 25.2855 20.2252 24.4977 21.4318 23.4839C22.6384 22.47 23.5918 21.2518 24.2327 19.9049C24.8737 18.558 25.1884 17.1112 25.1575 15.6543C25.1575 7.13629 18.5056 4.60063 15.4073 3.03672C14.4795 2.15607 15.7399 0 16.6151 0C18.8382 0 29.2887 4.55508 29.2887 15.8669C29.1698 19.6788 27.3733 23.3068 24.2678 26.0061C21.1623 28.7054 16.9835 30.2713 12.589 30.3824C5.13186 30.3824 1.49083 27.1786 0.3355 23.7927C-0.644777 21.0445 0.668095 17.3397 2.40109 14.0904C3.27633 12.4657 3.43388 12.0406 4.02905 10.8411C4.71928 9.46911 5.30406 8.05902 5.77954 6.62004" transform="translate(66.3118 80.2158)" fill="white"/>
<path fill-rule="evenodd" clip-rule="evenodd" d="M8.25792 5.08552C7.20763 5.6625 2.09618 5.5714 0.62576 5.16144C-0.459547 4.87295 0.0480971 1.19852 0.783305 0.606362C1.71107 -0.228736 7.92533 -0.259103 8.78307 0.879666C9.27321 1.54774 9.20319 4.50854 8.27543 5.02479" transform="translate(70.3978 78)" fill="white"/>
<path fill-rule="evenodd" clip-rule="evenodd" d="M3.81612 19.2493C3.95616 38.8057 34.1872 40.2633 41.6093 29.483C42.0645 28.6327 45.898 28.4657 46.2831 29.483C33.0494 48.0222 3.55861e-05 40.1115 3.55861e-05 19.2189C-0.0174694 9.54694 6.42435 1.86404 16.5597 0.0116445C17.61 -0.200926 18.4153 2.56249 17.4875 2.94208C9.69778 4.55154 3.7636 12.0522 3.81612 19.2493" transform="translate(50 80.1283)" fill="white"/>
<path d="M0 0H234.969" transform="translate(114.156 102.688)" stroke="white" stroke-width="0.5"/>
<path d="M0 0V42.2711" transform="translate(105.701 79.2289)" stroke="white" stroke-width="0.5"/>
<path d="M200.537 4.66136L201.517 5.51164V8.80648C201.299 8.97541 201.044 9.10529 200.768 9.18866C200.491 9.27204 200.199 9.30728 199.907 9.29235C197.719 9.29235 196.406 7.06037 196.406 5.01058C196.406 2.9608 197.701 0.728812 199.907 0.728812C200.149 0.718428 200.392 0.755313 200.616 0.836761C200.84 0.91821 201.04 1.04215 201.202 1.1995L202.777 2.55084V0.546607C201.998 0.206047 201.141 0.0211148 200.268 0.00537505C199.396 -0.0103647 198.53 0.143487 197.736 0.455646C196.941 0.767804 196.236 1.23035 195.674 1.80937C195.112 2.38838 194.707 3.06917 194.488 3.80181C194.268 4.53445 194.241 5.30035 194.408 6.04335C194.574 6.78634 194.93 7.48759 195.45 8.09564C195.97 8.7037 196.64 9.20314 197.411 9.55735C198.182 9.91156 199.035 10.1115 199.907 10.1426C201.085 10.2467 202.268 9.9888 203.25 9.41382V5.52683L204.23 4.67655L200.537 4.66136ZM175.662 0.106285L176.625 0.956565V9.14052L175.662 9.9908H179.356L178.376 9.14052V0.971749L179.356 0.121469L175.662 0.106285ZM165.877 5.10168H170.183V9.14052L169.203 9.9908H172.896L171.934 9.14052V0.971749L172.896 0.121469H169.203L170.183 0.971749V4.2514H165.877V0.911013L166.857 0.0607328H163.146L164.126 0.911013V9.09497L163.146 9.94525H166.857L165.877 9.09497V5.10168ZM160.625 6.99963C160.651 6.6333 160.563 6.26771 160.368 5.9416C160.174 5.6155 159.882 5.34101 159.523 5.14724L156.774 3.62888C156.445 3.48416 156.165 3.26852 155.959 3.00264C155.754 2.73676 155.631 2.42956 155.602 2.11052C155.641 1.73196 155.843 1.37999 156.167 1.12417C156.491 0.868346 156.914 0.727269 157.352 0.728812C157.615 0.708757 157.879 0.761942 158.105 0.880648L159.26 2.1257L160.398 0.440323L158.14 0.0759168C157.843 0.0446073 157.544 0.0446073 157.247 0.0759168C156.832 0.059544 156.418 0.11605 156.029 0.242042C155.64 0.368034 155.285 0.560913 154.984 0.809093C154.683 1.05727 154.443 1.35563 154.278 1.68625C154.114 2.01687 154.028 2.37293 154.026 2.73304C154.038 3.19121 154.184 3.63922 154.45 4.03498C154.717 4.43073 155.095 4.76123 155.549 4.9954L158.297 6.51376C158.543 6.65411 158.744 6.84595 158.882 7.07153C159.019 7.29711 159.089 7.54915 159.085 7.80436C159.095 8.03333 159.05 8.26158 158.955 8.47517C158.859 8.68876 158.714 8.88321 158.529 9.04663C158.344 9.21006 158.122 9.33902 157.878 9.42565C157.633 9.51228 157.371 9.55475 157.107 9.55048C156.783 9.56056 156.461 9.49222 156.179 9.35309L154.919 7.97138L153.816 9.7175L156.179 10.0819C156.464 10.1104 156.752 10.1104 157.037 10.0819C157.522 10.1032 158.006 10.0369 158.46 9.88709C158.914 9.7373 159.326 9.50732 159.672 9.21176C160.018 8.9162 160.289 8.56152 160.468 8.17025C160.647 7.77897 160.731 7.35964 160.713 6.9389L160.625 6.99963ZM146.709 2.38382L148.232 6.34674H145.064L146.709 2.38382ZM144.066 9.11015L144.819 7.15147H148.565L149.317 9.11015L148.355 9.94525H152.223L151.208 9.07979L147.707 0.0455489H146.639L142.998 9.07979L142 9.94525H145.064L144.066 9.11015ZM131.812 9.94525L134.175 3.52259L136.469 9.94525H137.536L140.845 0.911013L141.825 0.030365H138.762L139.725 0.865464L137.379 7.43996L135.138 0.865464L136.101 0.030365H132.232L133.213 0.911013L133.598 2.00423L131.637 7.45514L129.309 0.956565L130.272 0.121469H126.403L127.384 1.00212L130.622 10.0364L131.812 9.94525ZM115.55 4.00847C116.04 1.33615 116.39 0.743996 116.846 0.743996C117.296 0.773365 117.717 0.95292 118.018 1.24505C118.096 1.30913 118.2 1.34483 118.307 1.34483C118.415 1.34483 118.518 1.30913 118.596 1.24505C118.709 1.16781 118.803 1.07149 118.873 0.961896C118.942 0.852302 118.985 0.731699 118.999 0.607343C118.999 0.273304 118.561 0 117.948 0C117.43 0.0295553 116.924 0.149709 116.461 0.353236C115.998 0.556763 115.587 0.839456 115.253 1.18432C114.521 2.00321 114.061 2.97964 113.922 4.00847H112.942L112.469 4.43361V4.57026H113.73C113.52 5.78494 113.345 6.86298 113.065 8.59391C113.001 9.82805 112.681 11.0421 112.119 12.1772C112.069 12.2275 112.007 12.2683 111.938 12.297C111.869 12.3258 111.793 12.3418 111.717 12.3443C111.453 12.2972 111.199 12.2153 110.964 12.1013C110.881 12.0711 110.79 12.0637 110.702 12.08C110.615 12.0963 110.535 12.1355 110.474 12.1924C110.293 12.3571 110.188 12.5728 110.176 12.7998C110.176 13.1186 110.579 13.2401 110.859 13.2401C111.586 13.147 112.248 12.8222 112.714 12.3291C113.866 10.9495 114.578 9.3314 114.78 7.63734C115.008 6.65041 115.165 5.78495 115.393 4.60063L117.021 4.46397L117.388 4.03883L115.55 4.00847ZM106.99 4.26659C107.638 4.26659 108.058 4.76765 108.058 5.78495C108.134 6.44688 108.034 7.11507 107.767 7.73865C107.501 8.36223 107.073 8.92477 106.518 9.38346C106.39 9.39966 106.26 9.39966 106.133 9.38346C105.397 9.38346 104.977 8.70019 104.977 7.62216C104.977 5.51164 106.028 4.46397 106.518 4.28177C106.673 4.22633 106.84 4.20044 107.008 4.20585L106.99 4.26659ZM107.55 3.59851C106.84 3.62006 106.147 3.79769 105.537 4.11475C104.817 4.50214 104.226 5.04671 103.823 5.69412C103.421 6.34153 103.221 7.06914 103.244 7.80436C103.204 8.07979 103.232 8.35954 103.328 8.62448C103.424 8.88943 103.584 9.13332 103.799 9.33948C104.013 9.54564 104.276 9.70921 104.57 9.819C104.864 9.92879 105.182 9.98221 105.502 9.97562C106.462 9.91952 107.374 9.58838 108.093 9.03423C108.639 8.59582 109.076 8.06531 109.377 7.47523C109.678 6.88516 109.837 6.24797 109.844 5.60274C109.869 5.33782 109.829 5.0712 109.725 4.82101C109.622 4.57081 109.457 4.34291 109.243 4.15277C109.029 3.96263 108.77 3.81471 108.484 3.71908C108.198 3.62344 107.891 3.58232 107.585 3.59851H107.55ZM87.9799 0.835096L90.7982 5.42054V9.1557L89.8179 10.006H93.5115L92.5487 9.1557V5.43572L95.3495 0.971749L96.3298 0.121469H93.2489L94.2117 0.956565L92.0236 4.49434L89.7829 0.956565L90.7457 0.121469H86.8771L87.9799 0.835096ZM82.0457 9.1557V0.926197H83.9538L85.2491 2.06497V0.121469H77.0043V2.06497L78.2997 0.926197H80.2952V9.17089L79.315 10.0212H83.0085L82.0457 9.1557ZM70.79 0.0455489L71.7528 0.895832V9.07979L70.79 9.93007H74.4836L73.5033 9.07979V0.971749L74.4836 0.121469L70.79 0.0455489ZM68.0418 7.01482C68.0696 6.64825 67.9816 6.28204 67.7873 5.95563C67.5929 5.62922 67.2996 5.35497 66.939 5.16242L64.1907 3.64406C63.8616 3.49935 63.5809 3.28371 63.3755 3.01783C63.1701 2.75195 63.047 2.44475 63.0178 2.1257C63.0573 1.74714 63.259 1.39518 63.5831 1.13935C63.9072 0.88353 64.3301 0.742453 64.7683 0.743996C65.0315 0.723941 65.2951 0.777126 65.5211 0.895832L66.6764 2.14089L67.8142 0.455507L65.5561 0.0911007C65.2596 0.0594894 64.9598 0.0594894 64.6633 0.0911007C64.2486 0.0726637 63.8339 0.127136 63.444 0.251246C63.0542 0.375356 62.6973 0.566542 62.3948 0.813315C62.0924 1.06009 61.8505 1.35735 61.6838 1.68725C61.5171 2.01715 61.4291 2.37287 61.4249 2.73304C61.4368 3.19121 61.5828 3.63922 61.8492 4.03498C62.1156 4.43073 62.4937 4.76123 62.9478 4.9954L65.6961 6.51376C65.9419 6.65411 66.1429 6.84595 66.2806 7.07153C66.4183 7.29711 66.4882 7.54915 66.4838 7.80436C66.4792 8.24872 66.2725 8.67351 65.9086 8.9863C65.5447 9.29909 65.0531 9.47458 64.5408 9.47456C64.2164 9.48464 63.8952 9.4163 63.613 9.27717L62.3527 7.89546L61.2148 9.70231L63.578 10.0667C63.863 10.0953 64.1508 10.0953 64.4358 10.0667C64.9058 10.079 65.3738 10.009 65.8119 9.86088C66.25 9.71281 66.6493 9.4897 66.9858 9.20487C67.3224 8.92004 67.5893 8.57932 67.7707 8.20305C67.9522 7.82678 68.0443 7.42266 68.0418 7.01482V7.01482ZM53.145 0.941381H54.2829C54.5566 0.954935 54.8245 1.01522 55.0713 1.11878C55.3181 1.22235 55.5389 1.36715 55.7211 1.54489C55.9032 1.72262 56.0431 1.9298 56.1328 2.15453C56.2224 2.37927 56.26 2.61714 56.2434 2.85451C56.2532 3.31954 56.0541 3.76965 55.6882 4.10967C55.3224 4.44969 54.8184 4.65297 54.2829 4.67655H53.145V0.941381ZM58.6241 9.18607L56.1384 5.1776C56.7323 5.02665 57.2572 4.71883 57.64 4.29701C58.0227 3.87519 58.2444 3.36034 58.274 2.82415C58.1598 2.01353 57.6829 1.27432 56.9461 0.765898C56.2093 0.257478 55.2717 0.020581 54.3354 0.106285H50.5368L51.5171 0.956565V9.14052L50.5368 10.0212H54.2479L53.2676 9.17089V5.46609H54.5455L57.2762 10.0212H59.7269L58.6241 9.18607ZM47.841 10.0364V8.07767L46.5457 9.21644H43.5348V5.11687H45.7755L46.7557 5.96715V3.46186L45.7755 4.31214H43.5348V0.926197H46.6682L47.9636 2.06497V0.121469H40.734L41.7143 0.971749V9.1557L40.734 10.006L47.841 10.0364ZM33.2769 0.136653H29.5309L30.5111 1.0173L33.7496 10.0515H34.7824L38.0908 1.0173L39.1061 0.136653H35.9727L36.9355 0.971749L34.5898 7.54624L32.3492 0.971749L33.2769 0.136653ZM23.6842 0.136653L24.647 0.986933V9.17089L23.6842 10.0212H27.3778L26.3975 9.17089V0.971749L27.3778 0.121469L23.6842 0.136653ZM13.4263 9.24681V2.09533L19.273 10.0212H20.0257V0.911013L21.006 0.0607328H17.9951L18.9754 0.911013V6.55931L14.2315 0.0455489H11.3782L12.3585 0.895832V9.07979L11.3782 9.93007H14.4591L13.4263 9.24681ZM0.945263 7.45514C1.05445 8.25644 1.49883 8.99513 2.19414 9.53115C2.88945 10.0672 3.78735 10.3632 4.71759 10.3632C5.64782 10.3632 6.54572 10.0672 7.24103 9.53115C7.93634 8.99513 8.38071 8.25644 8.4899 7.45514V0.971749L9.47018 0.121469H6.44183L7.4221 0.971749V7.36404C7.4221 7.90365 7.17497 8.42116 6.73507 8.80272C6.29518 9.18428 5.69854 9.39864 5.07643 9.39864C4.45433 9.39864 3.8577 9.18428 3.4178 8.80272C2.9779 8.42116 2.73077 7.90365 2.73077 7.36404V0.971749L3.71105 0.121469H0L0.980273 0.971749L0.945263 7.45514Z" transform="translate(113.105 108.107)" fill="white"/>
<path d="M2.08309 9.04942V1.98905L7.92974 9.91488H8.68244V0.865464L9.66274 0H6.61687L7.59714 0.865464V6.51376L2.85332 0H0L0.980273 0.865464V9.04942L0 9.8997H3.06337L2.08309 9.04942Z" transform="translate(295.63 108.214)" fill="white"/>
<path d="M2.08309 9.04942V1.98905L7.92974 9.91488H8.68247V0.865464L9.66274 0H6.61687L7.59717 0.865464V6.51376L2.85332 0H0L0.980273 0.865464V9.04942L0 9.8997H3.08089L2.08309 9.04942Z" transform="translate(340.337 108.214)" fill="white"/>
<path d="M4.9889 9.04942V0.804728H6.89696L8.19231 1.9435V0H0V1.9435L1.29535 0.804728H3.2384V9.04942L2.25813 9.8997H5.95167L4.9889 9.04942Z" transform="translate(318.719 108.214)" fill="white"/>
<path d="M2.1531 5.16242C2.1531 3.20374 2.73077 0.819915 4.91889 0.819915C7.10701 0.819915 7.66718 3.20374 7.66718 5.16242C7.66718 7.12111 7.0895 9.50493 4.91889 9.50493C2.74827 9.50493 2.1531 7.12111 2.1531 5.16242ZM0 5.16242C0 7.74363 1.89053 10.3248 4.91889 10.3248C7.94725 10.3248 9.82028 7.74363 9.82028 5.16242C9.82028 2.58121 7.92974 0 4.91889 0C1.90804 0 0 2.58121 0 5.16242Z" transform="translate(328.539 108.017)" fill="white"/>
</g>
<defs>
<filter id="filter0_d" x="46" y="78" width="308" height="51.5" filterUnits="userSpaceOnUse" color-interpolation-filters="sRGB">
<feFlood flood-opacity="0" result="BackgroundImageFix"/>
<feColorMatrix in="SourceAlpha" type="matrix" values="0 0 0 0 0 0 0 0 0 0 0 0 0 0 0 0 0 0 255 0"/>
<feOffset dy="4"/>
<feGaussianBlur stdDeviation="2"/>
<feColorMatrix type="matrix" values="0 0 0 0 0 0 0 0 0 0 0 0 0 0 0 0 0 0 0.25 0"/>
<feBlend mode="normal" in2="BackgroundImageFix" result="effect1_dropShadow"/>
<feBlend mode="normal" in="SourceGraphic" in2="effect1_dropShadow" result="shape"/>
</filter>
</defs>
</svg>
